<svg width="61" height="61" viewBox="0 0 61 61" fill="none" xmlns="http://www.w3.org/2000/svg">
<path d="M38.1727 38.6254H37.1719C37.1719 44.5825 42.009 49.3481 47.8945 49.3481C53.7801 49.3481 58.6172 44.511 58.6172 38.6254H57.7594H57.6164L50.4203 14.7497H50.6348V11.6758H31.9773L32.025 4.24146H31.9297H31.8105H28.4508H28.3316H28.2602L28.3078 11.6758H9.60274V14.7497H9.81719L2.64492 38.6254H2.50196H1.62032C1.62032 44.5586 6.45742 49.3481 12.343 49.3481C18.2285 49.3481 23.0656 44.5586 23.0656 38.6254H22.0648H21.8266L14.6543 14.7497L28.2363 14.845V52.0883L28.2125 52.0168V52.1598H12.2953V58.6172H47.9184V52.136H32.0012V51.993L31.9773 52.0645V14.845L45.5594 14.7497L38.3633 38.6254H38.1727ZM19.4676 38.6254H5.21836L12.2238 15.0118L12.2953 14.9879L19.4676 38.6254ZM47.9184 14.9641L47.9898 14.9879L54.9953 38.6016H40.7461L47.9184 14.9641Z" fill="black"/>
</svg>
